<?xml version="1.0" standalone="no"?>
<!DOCTYPE svg PUBLIC "-//W3C//DTD SVG 20010904//EN"
 "http://www.w3.org/TR/2001/REC-SVG-20010904/DTD/svg10.dtd">
<svg version="1.0" xmlns="http://www.w3.org/2000/svg"
 width="492.000000pt" height="88.000000pt" viewBox="0 0 492.000000 88.000000"
 preserveAspectRatio="xMidYMid meet">

<g transform="translate(0.000000,88.000000) scale(0.100000,-0.100000)"
fill="#000000" stroke="none">
<path d="M1272 818 c-19 -19 -14 -46 9 -53 30 -10 58 19 43 43 -14 22 -36 26
-52 10z"/>
<path d="M1702 818 c-19 -19 -14 -46 9 -53 30 -10 58 19 43 43 -14 22 -36 26
-52 10z"/>
<path d="M4149 814 c-17 -21 0 -49 32 -49 18 0 25 6 27 24 6 38 -34 55 -59 25z"/>
<path d="M1029 716 c-80 -46 -41 -145 57 -146 42 0 63 -24 35 -40 -25 -13 -71
-3 -71 16 0 9 -11 14 -28 14 -37 0 -41 -4 -33 -42 5 -25 14 -34 46 -45 47 -17
115 -10 145 15 11 9 23 31 26 49 9 46 -28 80 -96 89 -39 5 -50 10 -48 23 4 22
68 29 68 7 0 -11 9 -16 30 -16 26 0 30 3 30 29 0 16 -7 34 -16 42 -23 19 -114
22 -145 5z"/>
<path d="M1237 723 c-13 -13 -7 -53 8 -53 22 0 22 -135 0 -144 -8 -3 -15 -17
-15 -31 0 -26 1 -26 68 -23 60 3 67 5 70 24 2 15 -3 23 -17 27 -19 5 -21 13
-21 76 0 56 3 71 15 71 10 0 15 10 15 30 0 30 0 30 -58 30 -32 0 -62 -3 -65
-7z"/>
<path d="M1400 698 c0 -18 5 -28 15 -28 12 0 15 -14 15 -70 0 -54 -4 -72 -15
-76 -8 -4 -15 -17 -15 -30 0 -24 0 -24 115 -24 l115 0 0 50 c0 48 -1 50 -29
50 -20 0 -30 -6 -34 -20 -4 -15 -14 -20 -36 -20 l-31 0 0 70 c0 56 3 70 15 70
10 0 15 10 15 28 0 29 0 29 -65 29 -65 -1 -65 -1 -65 -29z"/>
<path d="M1667 723 c-13 -13 -7 -53 8 -53 12 0 15 -14 15 -69 0 -52 -4 -70
-15 -75 -8 -3 -15 -17 -15 -31 0 -26 1 -26 68 -23 60 3 67 5 70 24 2 15 -3 23
-17 27 -19 4 -21 13 -21 71 0 50 4 68 15 72 9 4 15 19 15 35 0 29 -1 29 -58
29 -32 0 -62 -3 -65 -7z"/>
<path d="M1830 698 c0 -18 5 -28 15 -28 12 0 15 -14 15 -70 0 -54 -4 -72 -15
-76 -8 -4 -15 -17 -15 -30 0 -23 3 -24 65 -24 62 0 65 1 65 24 0 13 -7 26 -15
30 -28 10 -17 35 17 38 27 2 33 7 33 28 0 21 -6 26 -33 28 -26 3 -32 7 -32 28
0 21 5 24 35 24 25 0 35 -4 35 -16 0 -11 8 -14 28 -12 24 3 27 7 27 43 l0 40
-112 0 -113 1 0 -28z"/>
<path d="M2089 728 c-7 -22 -2 -58 8 -58 9 0 13 -21 13 -75 0 -61 -3 -75 -16
-75 -10 0 -14 -7 -12 -22 3 -21 9 -23 66 -26 58 -3 62 -2 62 19 0 12 -8 28
-17 35 -17 13 -17 15 2 29 18 14 21 13 42 -12 12 -16 22 -38 23 -50 0 -21 5
-23 55 -23 52 0 55 1 55 25 0 15 -6 25 -14 25 -7 0 -30 21 -51 46 l-38 45 34
29 c19 16 39 29 46 30 17 0 25 17 19 38 -8 26 -123 31 -133 6 -3 -9 -2 -24 4
-32 7 -12 3 -21 -16 -38 -14 -12 -29 -20 -33 -17 -12 6 -10 43 2 43 6 0 10 11
10 24 0 18 -7 25 -31 30 -32 6 -78 8 -80 4z"/>
<path d="M2404 721 c-11 -11 -3 -51 11 -51 12 0 15 -15 15 -75 0 -60 -3 -75
-15 -75 -9 0 -15 -9 -15 -25 l0 -25 115 0 115 0 0 46 c0 42 -1 45 -22 38 -13
-3 -24 -11 -26 -15 -2 -5 -21 -9 -43 -9 -32 0 -39 3 -39 20 0 16 7 20 30 20
25 0 30 4 30 24 0 19 -6 25 -27 28 -20 2 -28 9 -28 23 0 15 8 21 33 23 24 2
32 -1 32 -12 0 -11 10 -16 31 -16 29 0 30 1 27 42 l-3 42 -108 1 c-60 0 -111
-2 -113 -4z"/>
<path d="M2854 716 c-34 -15 -44 -33 -44 -75 0 -38 30 -62 84 -68 55 -7 77
-26 47 -43 -25 -13 -71 -3 -71 16 0 9 -11 14 -30 14 -27 0 -30 -3 -30 -34 0
-30 4 -36 42 -51 78 -31 162 -2 174 60 8 45 -20 74 -86 89 -63 14 -75 39 -22
44 24 2 32 -1 32 -12 0 -11 9 -16 30 -16 26 0 30 3 30 29 0 16 -7 34 -15 41
-23 19 -105 23 -141 6z"/>
<path d="M3050 698 c0 -18 5 -28 15 -28 12 0 15 -14 15 -70 0 -54 -4 -72 -15
-76 -8 -4 -15 -17 -15 -30 0 -24 0 -24 115 -24 l115 0 0 38 c0 21 -2 41 -5 44
-9 9 -55 -4 -49 -13 3 -5 -13 -9 -35 -9 -34 0 -41 3 -41 20 0 16 7 20 30 20
25 0 30 4 30 24 0 19 -6 25 -27 28 -20 2 -29 9 -31 26 -3 19 1 22 32 22 25 0
36 -4 36 -15 0 -9 9 -15 25 -15 23 0 25 4 25 43 l0 42 -110 0 -110 0 0 -27z"/>
<path d="M3318 724 c-14 -14 -9 -54 7 -54 11 0 15 -13 16 -52 2 -71 0 -81 -17
-94 -8 -6 -14 -21 -14 -33 0 -19 5 -21 70 -21 67 0 70 1 70 24 0 16 -7 26 -21
29 -29 8 -14 27 20 27 41 0 90 20 101 40 6 10 10 35 10 54 0 46 -29 76 -72 76
-18 0 -62 3 -98 6 -36 3 -68 3 -72 -2z m160 -63 c8 -1 12 -10 10 -23 -2 -18
-11 -24 -36 -26 -22 -2 -34 2 -38 12 -10 27 3 46 28 42 13 -3 29 -5 36 -5z"/>
<path d="M3580 698 c0 -18 5 -28 15 -28 12 0 15 -14 15 -70 0 -54 -4 -72 -15
-76 -8 -4 -15 -17 -15 -30 0 -24 0 -24 116 -24 l115 0 -3 43 c-3 38 -5 42 -28
39 -14 -2 -26 -8 -28 -13 -2 -5 -19 -9 -38 -9 -27 0 -34 4 -34 20 0 16 7 20
30 20 25 0 30 4 30 24 0 19 -6 25 -27 28 -20 2 -29 9 -31 26 -3 19 1 22 32 22
25 0 36 -4 36 -15 0 -9 9 -15 25 -15 23 0 25 4 25 43 l0 42 -110 0 -110 0 0
-27z"/>
<path d="M3845 722 c-3 -3 -5 -25 -5 -49 0 -41 1 -43 29 -43 21 0 30 6 34 21
3 12 10 18 16 14 22 -13 8 -145 -15 -145 -8 0 -14 -11 -14 -25 0 -24 2 -25 65
-25 36 0 65 4 65 9 0 5 3 16 6 25 4 10 1 16 -9 16 -22 0 -25 18 -17 90 6 48 9
59 15 43 5 -17 15 -23 36 -23 28 0 29 2 29 48 l0 47 -115 1 c-63 1 -117 -1
-120 -4z"/>
<path d="M4119 728 c-9 -21 -3 -51 10 -55 13 -3 17 -18 19 -66 2 -60 -5 -87
-24 -90 -5 -1 -9 -11 -9 -22 0 -18 8 -20 68 -23 66 -3 67 -3 67 23 0 16 -6 25
-15 25 -12 0 -15 15 -15 75 0 61 3 75 16 75 11 0 14 8 12 28 -3 26 -6 27 -65
30 -35 2 -64 2 -64 0z"/>
<path d="M729 510 c40 -11 94 -31 119 -45 53 -29 52 -29 52 -9 0 25 -103 66
-179 70 l-66 5 74 -21z"/>
<path d="M740 469 c30 -16 76 -51 103 -77 46 -45 47 -46 47 -20 0 32 -56 75
-139 108 -72 28 -75 25 -11 -11z"/>
<path d="M752 417 c29 -30 65 -78 80 -107 26 -49 27 -51 34 -27 7 32 -16 68
-84 127 -72 64 -90 68 -30 7z"/>
</g>
</svg>
